<svg id="logo" xmlns="http://www.w3.org/2000/svg" width="287" height="49.931" viewBox="0 0 287 49.931">
  <path id="Trazado_308" data-name="Trazado 308" d="M35.522,12.263H30.528V30.211h4.993ZM23.41,9.193H42.471V4.942H23.41ZM49.016,23.4h7.557V20.967a7.118,7.118,0,0,0-7.085-7.928,8.029,8.029,0,0,0-8.1,8.67,7.658,7.658,0,0,0,8.266,8.7,12.28,12.28,0,0,0,5.9-1.181l-1.316-3.374a15.519,15.519,0,0,1-4.352.675,4.217,4.217,0,0,1-4.015-4.791c0-1.788.506-5.094,3.374-5.094,2.092,0,2.766,2.092,2.766,3.677h-3v3.1Zm21.254-5.465,2.159-3.374A10.121,10.121,0,0,0,67,13.14a8.2,8.2,0,0,0-8.3,7.253h4.723a3.914,3.914,0,0,1,3.846-3.171,6.343,6.343,0,0,1,3,.81m-3.1,12.483A10.526,10.526,0,0,0,72.632,29L70.54,25.623a7.017,7.017,0,0,1-2.969.641,3.981,3.981,0,0,1-4.082-3H58.665a7.861,7.861,0,0,0,8.5,7.118m8.131-.2h4.622V13.309H75.3Zm10.863,0h4.588V18.234a5.2,5.2,0,0,0-5.87-5.2,6.748,6.748,0,0,0-1.99.3v3.913a4.656,4.656,0,0,1,1.181,0c1.349,0,2.092.439,2.092,1.923v11Zm14.642,0V26.061a4.285,4.285,0,0,1-2.294-4.318,4.386,4.386,0,0,1,2.294-4.318V13.106a8.232,8.232,0,0,0-7.118,8.67,8.063,8.063,0,0,0,7.118,8.535m10.121-8.569a8.029,8.029,0,0,0-7.017-8.637v4.352a4.285,4.285,0,0,1,2.227,4.285,4.116,4.116,0,0,1-2.328,4.318v4.251a8.164,8.164,0,0,0,7.017-8.569M130.761,10.07l2.159-3.677a12.888,12.888,0,0,0-6.747-1.721,12.213,12.213,0,0,0-12.82,11.268h5.061a7.523,7.523,0,0,1,7.422-6.747,9.176,9.176,0,0,1,4.926,1.046m2.6,18.353h0m-7.186,1.822a12.247,12.247,0,0,0,7.186-1.822l-1.99-3.542a11.538,11.538,0,0,1-5.2,1.012,7.759,7.759,0,0,1-7.827-7.051h-5.061A11.875,11.875,0,0,0,126.24,30.38m8.4-4.926c0,3.745,2.766,4.926,5.465,4.926h1.012V26.8h-.337a1.586,1.586,0,0,1-1.687-1.586,2.058,2.058,0,0,1,1.788-2.024h.236v-3.1h-.4c-1.451.27-6.073,1.248-6.073,5.3m12.516,5.3,3.171-2.9L148.743,26.2V18.133a5.533,5.533,0,0,0-6.208-5.094,13.866,13.866,0,0,0-7.22,2.058l1.653,3.138a11.572,11.572,0,0,1,5.128-1.282c.945,0,1.99.675,1.99,1.518v9.413Zm5.769-.574h4.622V13.241h-4.622Zm9.716,0h4.622V18.471a4.993,4.993,0,0,0-5.027-5.432,6.747,6.747,0,0,0-1.687.236v3.913h.3c.978,0,1.788.337,1.788,1.417v11.5Zm9.716,0h4.588V18.471a4.959,4.959,0,0,0-5.027-5.432,6.983,6.983,0,0,0-1.687.2v3.947h.4c1.282,0,1.721.641,1.721,1.518ZM181,38.881h4.622V13.039H181Zm16.464-17.24c0-4.892-2.6-8.6-7.49-8.6a5.87,5.87,0,0,0-1.518.2v3.947a3.981,3.981,0,0,1,.877,0c2.564,0,3.542,2.4,3.542,4.588S191.892,26.4,189.5,26.4h-.945v4.015a9.074,9.074,0,0,0,1.349,0,7.928,7.928,0,0,0,7.557-8.772m9.041,8.772a6.241,6.241,0,0,0,1.923-.337V26.061a4.487,4.487,0,0,1-1.147.169c-1.349,0-2.024-.472-2.024-1.754V13.309h-4.42V25.252c0,3.374,2.631,5.162,5.9,5.162m4.959-.2h4.622V13.342h-4.723Zm9.784-5.061-2.5,3.07a8.434,8.434,0,0,0,6.073,2.193c2.7,0,6.376-1.619,6.376-5.128a5.6,5.6,0,0,0-3.374-4.791l-2.227,3.374a1.957,1.957,0,0,1,1.012,1.417c0,.641-.574,1.248-1.788,1.248a5.162,5.162,0,0,1-3.644-1.417m7.624-7.152,2.159-3.1a8.434,8.434,0,0,0-5.634-1.822,5.432,5.432,0,0,0-5.837,4.824,4.926,4.926,0,0,0,3.374,4.723l2.227-3.374c-.945-.472-1.383-.776-1.383-1.417s.506-.877,1.653-.877a5.6,5.6,0,0,1,3.374,1.113" transform="translate(55.568 11.049)" fill="#fff"/>
  <path id="Trazado_309" data-name="Trazado 309" d="M0,41.294H15.148V26.146H0ZM0,15.148H15.148V0H0ZM22.874,0V41.294H64.1v-25.3H52.765v13.9H34.175V11.4h13.9V0Z" fill="#fff"/>
</svg>
